C:\GBW_MyPrograms\KinderuniversiteitApp\Resultaten\Ellis\Kleuter\Kleuter_v4.mot
version=1
nRows=11
nColumns=29
inDegrees=yes
endheader
                time	         pelvis_tilt	           pelvis_tx	           pelvis_ty	       hip_flexion_l	       hip_flexion_r	        knee_angle_l	        knee_angle_r	       ankle_angle_l	       ankle_angle_r	    lumbar_extension	hamstrings_r/activation	bifemsh_r/activation	glut_max_r/activation	iliopsoas_r/activation	rect_fem_r/activation	  vasti_r/activation	gastroc_r/activation	 soleus_r/activation	tib_ant_r/activation	hamstrings_l/activation	bifemsh_l/activation	glut_max_l/activation	iliopsoas_l/activation	rect_fem_l/activation	  vasti_l/activation	gastroc_l/activation	 soleus_l/activation	tib_ant_l/activation	
          0.77338809	         -7.40179418	          0.40989569	          0.90286739	         26.50113701	         -3.10340084	         -5.55433627	         -1.54135109	          6.12973703	         14.11060231	          0.80841177	          0.06182347	          0.32031688	          0.05000001	          0.59711634	          0.05000001	          0.05000000	          0.47450178	          0.43673197	          0.09504130	          0.18110483	          0.05760795	          0.06109107	          0.09150062	          0.05000032	          0.05235047	          0.07002991	          0.05000002	          0.23955022	
          0.78885585	         -7.39558816	          0.42188539	          0.90134673	         25.78929842	         -3.35490629	         -5.37251654	         -2.67583322	          5.55914751	         14.65049502	          1.18583031	          0.07384935	          0.29888418	          0.05000002	          0.55438168	          0.05000001	          0.05000000	          0.48031548	          0.49269763	          0.07556177	          0.16774584	          0.07910240	          0.07495144	          0.07274679	          0.05000002	          0.05000000	          0.07910252	          0.06405563	          0.23715927	
          0.80432362	         -7.38318532	          0.43414980	          0.89989549	         25.00904047	         -3.54026834	         -5.35727197	         -3.97621770	          4.88323662	         15.15631792	          1.58870735	          0.07784619	          0.25879625	          0.05000004	          0.47205447	          0.05000001	          0.05000000	          0.47356357	          0.53780604	          0.06007474	          0.14930685	          0.06288976	          0.13454061	          0.05783672	          0.05000002	          0.05000017	          0.06288979	          0.05092689	          0.30292383	
          0.81979138	         -7.37040885	          0.44631016	          0.89892285	         24.26402979	         -3.63456767	         -5.36396011	         -5.40419772	          4.10257658	         15.46561321	          1.97713066	          0.08134977	          0.22249055	          0.05000002	          0.44828249	          0.05000001	          0.05000000	          0.45015718	          0.56151459	          0.05000000	          0.13614412	          0.05000012	          0.18473602	          0.05000000	          0.05000003	          0.15171472	          0.05000000	          0.05000000	          0.36313780	
          0.83525914	         -7.36183054	          0.45805148	          0.89876801	         23.61147448	         -3.61736635	         -5.47055133	         -6.92811611	          3.31540277	         15.46859714	          2.31859222	          0.07419561	          0.18987100	          0.05000023	          0.43344034	          0.05000001	          0.05000000	          0.41059638	          0.55746667	          0.05000000	          0.11786486	          0.05000004	          0.22213770	          0.05000000	          0.05000006	          0.22167187	          0.05000000	          0.05000000	          0.38319986	
          0.85072690	         -7.35825183	          0.46928255	          0.89948283	         23.02057057	         -3.48311833	         -5.63418715	         -8.54456681	          2.67179554	         15.16725698	          2.60504534	          0.06582440	          0.16060873	          0.05000006	          0.41187412	          0.05000002	          0.05000000	          0.36025266	          0.53052288	          0.05000000	          0.10320608	          0.05000005	          0.22402310	          0.05000000	          0.05000014	          0.25316197	          0.05000000	          0.05000001	          0.37872262	
          0.86619466	         -7.35725411	          0.48007560	          0.90091643	         22.43075655	         -3.22938219	         -5.76586451	        -10.28235575	          2.22632989	         14.62088814	          2.84512235	          0.05863920	          0.12774001	          0.05000003	          0.38267320	          0.05000002	          0.05000000	          0.30548732	          0.48897203	          0.05000000	          0.09318580	          0.05000005	          0.20938296	          0.05000001	          0.05000044	          0.26181663	          0.05000001	          0.05000004	          0.36590065	
          0.88166243	         -7.35556137	          0.49054362	          0.90281496	         21.79068300	         -2.85380645	         -5.79167266	        -12.17471849	          1.97423690	         13.90361339	          3.05092330	          0.05330002	          0.10155885	          0.05000004	          0.34986497	          0.05000003	          0.05000000	          0.25218978	          0.44061046	          0.05000000	          0.08715970	          0.05000005	          0.19606942	          0.05000001	          0.06232151	          0.25798937	          0.05000001	          0.05007178	          0.35508976	
          0.89713019	         -7.35053347	          0.50077053	          0.90491137	         21.07140731	         -2.35291077	         -5.66940937	        -14.25024704	          1.87549592	         13.07704588	          3.23092846	          0.05000093	          0.08074367	          0.05000006	          0.31733042	          0.05000003	          0.05000000	          0.20070630	          0.39062764	          0.05000000	          0.08422321	          0.05000004	          0.18612056	          0.05000000	          0.08172707	          0.24713372	          0.05000001	          0.05000199	          0.34728181	
          0.91259795	         -7.34046685	          0.51079829	          0.90697992	         20.26717495	         -1.72128485	         -5.39132924	        -16.53177846	          1.87987628	         12.17655087	          3.38897099	          0.05000011	          0.06419480	          0.05000006	          0.28848931	          0.05000004	          0.05000000	          0.15956984	          0.34153173	          0.05000000	          0.08320442	          0.05000004	          0.17818320	          0.05000000	          0.10181945	          0.23276052	          0.05000000	          0.05000005	          0.34297454	
          0.92806571	         -7.32455422	          0.52063396	          0.90885176	         19.39038398	         -0.95205871	         -4.97763825	        -19.03456296	          1.94477376	         11.20639670	          3.52531036	          0.05000007	          0.05103754	          0.05000005	          0.26435694	          0.05000004	          0.05000000	          0.12686465	          0.29044028	          0.05000000	          0.08371546	          0.05000003	          0.17283244	          0.05000000	          0.11796051	          0.21773205	          0.05000000	          0.05000002	          0.34175449	
